<svg xmlns="http://www.w3.org/2000/svg" viewBox="0 0 128 128">
  <defs>
    <linearGradient id="bg" x1="0" y1="0" x2="0" y2="1">
      <stop offset="0%" stop-color="#5B8CC4"/>
      <stop offset="100%" stop-color="#3A5A8C"/>
    </linearGradient>
  </defs>
  <rect width="128" height="128" rx="24" fill="url(#bg)"/>
  <rect x="18" y="30" width="92" height="82" rx="8" fill="white" opacity="0.95"/>
  <rect x="18" y="30" width="92" height="22" rx="8" fill="white" opacity="0.95"/>
  <rect x="14" y="48" width="100" height="8" rx="4" fill="#D5E4F3"/>
  <rect x="18" y="30" width="92" height="18" rx="8" fill="white"/>
  <text x="64" y="44" text-anchor="middle" font-family="Arial,sans-serif" font-weight="bold" font-size="13" fill="#4A6FA5">计划</text>
  <line x1="32" y1="62" x2="96" y2="62" stroke="#E5E8EB" stroke-width="1.5" stroke-linecap="round"/>
  <line x1="32" y1="74" x2="88" y2="74" stroke="#E5E8EB" stroke-width="1.5" stroke-linecap="round"/>
  <line x1="32" y1="86" x2="78" y2="86" stroke="#E5E8EB" stroke-width="1.5" stroke-linecap="round"/>
  <rect x="32" y="58" width="6" height="6" rx="3" fill="#4A6FA5"/>
  <rect x="32" y="70" width="6" height="6" rx="3" fill="#4A6FA5"/>
  <rect x="32" y="82" width="6" height="6" rx="3" fill="#4A6FA5"/>
  <line x1="38" y1="62" x2="96" y2="62" stroke="#E5E8EB" stroke-width="1.5" stroke-linecap="round"/>
  <line x1="38" y1="74" x2="88" y2="74" stroke="#E5E8EB" stroke-width="1.5" stroke-linecap="round"/>
  <line x1="38" y1="86" x2="78" y2="86" stroke="#E5E8EB" stroke-width="1.5" stroke-linecap="round"/>
  <rect x="28" y="22" width="12" height="18" rx="3" fill="white" opacity="0.9"/>
  <rect x="88" y="22" width="12" height="18" rx="3" fill="white" opacity="0.9"/>
</svg>
